<?xml version="1.0" encoding="UTF-8"?>
<svg id="Layer_2" data-name="Layer 2" xmlns="http://www.w3.org/2000/svg" viewBox="0 0 435.4 343.67">
  <defs>
    <style>
      .cls-1, .cls-2, .cls-3, .cls-4, .cls-5, .cls-6, .cls-7, .cls-8, .cls-9, .cls-10, .cls-11, .cls-12, .cls-13, .cls-14, .cls-15, .cls-16, .cls-17, .cls-18, .cls-19, .cls-20, .cls-21, .cls-22, .cls-23, .cls-24, .cls-25, .cls-26, .cls-27, .cls-28, .cls-29, .cls-30, .cls-31 {
        fill-rule: evenodd;
      }

      .cls-1, .cls-32 {
        fill: #9cc6e0;
      }

      .cls-33 {
        fill: #b2323a;
      }

      .cls-34, .cls-2, .cls-35 {
        fill: #fff;
      }

      .cls-36, .cls-9 {
        fill: #a36e4e;
      }

      .cls-3 {
        fill: #d49d80;
      }

      .cls-4 {
        fill: #a62a34;
      }

      .cls-5 {
        fill: #7897a8;
      }

      .cls-6 {
        fill: #be865e;
      }

      .cls-7 {
        fill: #c44345;
      }

      .cls-37 {
        letter-spacing: -.01em;
      }

      .cls-8 {
        fill: #e8685b;
      }

      .cls-38 {
        letter-spacing: 0em;
      }

      .cls-39 {
        letter-spacing: 0em;
      }

      .cls-10 {
        fill: #ccde6f;
      }

      .cls-11 {
        fill: #252626;
      }

      .cls-40 {
        letter-spacing: -.04em;
      }

      .cls-12 {
        fill: #222221;
      }

      .cls-13 {
        fill: #f4ad85;
      }

      .cls-14 {
        fill: #ef8871;
      }

      .cls-41 {
        letter-spacing: 0em;
      }

      .cls-15, .cls-42 {
        fill: #0c0e0e;
      }

      .cls-16 {
        fill: #b7e1f8;
      }

      .cls-17 {
        fill: #78c9d9;
      }

      .cls-18 {
        fill: #fadfd3;
      }

      .cls-19 {
        fill: #794c34;
      }

      .cls-20 {
        fill: #fffaf9;
      }

      .cls-43 {
        fill: #915e40;
      }

      .cls-21 {
        fill: #da4346;
      }

      .cls-22 {
        fill: #373736;
      }

      .cls-23 {
        fill: #dedede;
      }

      .cls-24 {
        fill: #d64341;
      }

      .cls-44 {
        letter-spacing: 0em;
      }

      .cls-25 {
        fill: #7cbee2;
      }

      .cls-26 {
        fill: #f8caae;
      }

      .cls-27 {
        fill: #aabd46;
      }

      .cls-28, .cls-45 {
        fill: #d84f50;
      }

      .cls-29 {
        fill: #f6bb98;
      }

      .cls-30 {
        fill: #e2ecf7;
      }

      .cls-35 {
        font-family: MontserratRoman-Bold, Montserrat;
        font-size: 17.02px;
        font-variation-settings: 'wght' 700;
        font-weight: 700;
      }
    </style>
  </defs>
  <g id="OBJECTS">
    <path class="cls-16" d="m69.98,343.67c-38.49,0-69.98-31.49-69.98-69.98h0c0-38.49,31.49-69.98,69.98-69.98h0c16.28,0,29.59-13.32,29.59-29.59h0c0-16.27-13.32-29.59-29.59-29.59h-3.52c-16.92,0-30.76-13.84-30.76-30.77h0c0-16.92,13.84-30.76,30.76-30.76h10.8c6.59,0,11.98-5.39,11.98-11.98h0c0-6.59-5.39-11.98-11.98-11.98h-7.94c-4.55,0-8.27-3.72-8.27-8.27h0c0-4.55,3.72-8.27,8.27-8.27h53.37c7.14,0,12.99-5.85,12.99-12.99h0c0-7.14-5.84-12.99-12.99-12.99h-15.96c-4.55,0-8.27-3.72-8.27-8.27h0c0-4.55,3.72-8.27,8.27-8.27h233.69c5.93,0,10.79,4.85,10.79,10.79h0c0,5.93-4.85,10.79-10.79,10.79h-16.36c-9.32,0-16.95,7.63-16.95,16.95h0c0,9.32,7.63,16.95,16.95,16.95h63.3c5.93,0,10.79,4.86,10.79,10.79h0c0,5.93-4.85,10.79-10.79,10.79h-10.36c-8.6,0-15.63,7.03-15.63,15.63h0c0,8.6,7.03,15.63,15.63,15.63h14.1c22.08,0,40.15,18.06,40.15,40.14h0c0,22.08-18.07,40.14-40.15,40.14h-4.59c-21.24,0-38.61,17.38-38.61,38.61h0c0,21.24,17.38,38.61,38.61,38.61h9.95c21.41,0,38.93,17.52,38.93,38.93h0c0,21.41-17.52,38.93-38.93,38.93H69.98ZM368.03,21.57c5.96,0,10.79-4.83,10.79-10.79s-4.83-10.79-10.79-10.79-10.79,4.83-10.79,10.79,4.83,10.79,10.79,10.79h0ZM46.13,59.04c4.57,0,8.27-3.7,8.27-8.27s-3.7-8.27-8.27-8.27-8.27,3.7-8.27,8.27,3.7,8.27,8.27,8.27Z"/>
    <path class="cls-2" d="m230.18,32.89c1.34,0,2.43-1.09,2.43-2.43s-1.09-2.43-2.43-2.43-2.43,1.09-2.43,2.43,1.09,2.43,2.43,2.43Z"/>
    <g>
      <rect class="cls-33" x="103.49" y="108.57" width="44.28" height="27.07" rx="1.97" ry="1.97"/>
      <path class="cls-7" d="m147.75,134.01c-.16.92-.97,1.63-1.94,1.63h-40.34c-.97,0-1.78-.71-1.94-1.63l22.11-15.34,22.11,15.34Z"/>
      <path class="cls-21" d="m105.46,108.57h40.34c.57,0,1.09.25,1.45.64l-21.62,15-21.62-15c.36-.39.88-.64,1.45-.64Z"/>
    </g>
    <g>
      <path class="cls-32" d="m315.52,167.49h12.58c1.3,0,2.36,1.06,2.36,2.36v12.58c0,1.3-1.06,2.36-2.36,2.36h-12.58c-1.3,0-2.36-1.06-2.36-2.36v-12.58c0-1.3,1.06-2.36,2.36-2.36Z"/>
      <path class="cls-32" d="m315.53,189.28h12.58c1.3,0,2.36,1.06,2.36,2.36v12.58c0,1.3-1.06,2.36-2.36,2.36h-12.58c-1.3,0-2.36-1.06-2.36-2.36v-12.58c0-1.3,1.06-2.36,2.36-2.36Z"/>
      <path class="cls-32" d="m315.52,211.07h12.58c1.3,0,2.36,1.06,2.36,2.36v12.58c0,1.3-1.06,2.36-2.36,2.36h-12.58c-1.3,0-2.36-1.06-2.36-2.36v-12.58c0-1.3,1.06-2.36,2.36-2.36Z"/>
      <path class="cls-32" d="m315.52,232.86h12.58c1.3,0,2.36,1.06,2.36,2.36v12.58c0,1.3-1.06,2.36-2.36,2.36h-12.58c-1.3,0-2.36-1.06-2.36-2.36v-12.58c0-1.3,1.06-2.36,2.36-2.36Z"/>
      <path class="cls-34" d="m313.57,165.83h12.58c1.3,0,2.36,1.06,2.36,2.36v12.58c0,1.3-1.06,2.36-2.36,2.36h-12.58c-1.3,0-2.36-1.06-2.36-2.36v-12.58c0-1.3,1.06-2.36,2.36-2.36Z"/>
      <path class="cls-34" d="m313.57,187.62h12.58c1.3,0,2.36,1.06,2.36,2.36v12.58c0,1.3-1.06,2.36-2.36,2.36h-12.58c-1.3,0-2.36-1.06-2.36-2.36v-12.58c0-1.3,1.06-2.36,2.36-2.36Z"/>
      <path class="cls-34" d="m313.57,209.41h12.58c1.3,0,2.36,1.06,2.36,2.36v12.58c0,1.3-1.06,2.36-2.36,2.36h-12.58c-1.3,0-2.36-1.06-2.36-2.36v-12.58c0-1.3,1.06-2.36,2.36-2.36Z"/>
      <path class="cls-34" d="m313.57,231.19h12.58c1.3,0,2.36,1.06,2.36,2.36v12.58c0,1.3-1.06,2.36-2.36,2.36h-12.58c-1.3,0-2.36-1.06-2.36-2.36v-12.58c0-1.3,1.06-2.36,2.36-2.36Z"/>
      <path class="cls-17" d="m314.96,176.39c-.4-.41-.38-1.06.03-1.46.41-.4,1.06-.38,1.46.03l1.86,1.93,4.86-7.05c.32-.47.96-.58,1.43-.26.47.32.59.97.26,1.43l-5.55,8.06c-.04.07-.09.13-.16.19-.41.39-1.06.38-1.46-.03l-2.73-2.84Z"/>
      <path class="cls-28" d="m317.48,200.69c-.37.44-1.02.49-1.45.12-.43-.37-.49-1.02-.12-1.45l2.61-3.09-2.61-3.09c-.37-.43-.31-1.08.12-1.45.43-.37,1.08-.31,1.45.12l2.38,2.82,2.38-2.82c.37-.43,1.02-.49,1.45-.12.43.37.49,1.02.12,1.45l-2.61,3.09,2.61,3.09c.37.43.31,1.09-.12,1.45-.43.37-1.09.31-1.45-.12l-2.38-2.82-2.38,2.82Z"/>
      <path class="cls-17" d="m314.96,219.97c-.4-.41-.38-1.06.03-1.46.41-.4,1.06-.38,1.46.03l1.86,1.93,4.86-7.05c.32-.47.96-.59,1.43-.26.47.32.59.96.26,1.43l-5.55,8.06c-.04.07-.09.13-.16.19-.41.39-1.06.38-1.46-.03l-2.73-2.84Z"/>
    </g>
    <g>
      <path class="cls-2" d="m341.08,268.59c.8.99,8.84,5.44,8.84,5.44l-2.97,42.04s-.08,4.45-5.14,4.45h-16.39c-5.06,0-5.14-4.45-5.14-4.45l-2.97-42.04s8.03-4.45,8.84-5.44h14.94Z"/>
      <path class="cls-9" d="m349.21,282.99h-31.19c-.31,0-.58.12-.79.34-.21.23-.31.5-.29.81l1.87,26.42c.04.57.51,1,1.08,1h27.46c.57,0,1.04-.44,1.08-1l1.87-26.42c.02-.31-.08-.58-.29-.81-.21-.23-.48-.34-.79-.34Z"/>
      <path class="cls-2" d="m344.92,265.75h-22.63c-2.75,0-5,2.25-5,5h0c0,2.75,2.25,5,5,5h22.63c2.75,0,5-2.25,5-5h0c0-2.75-2.25-5-5-5Z"/>
      <path class="cls-9" d="m350.57,270.73h-33.93c-1.54,0-2.81,1.26-2.81,2.81h0c0,1.54,1.26,2.81,2.81,2.81h33.93c1.54,0,2.81-1.26,2.81-2.81h0c0-1.54-1.26-2.81-2.81-2.81Z"/>
      <g>
        <path class="cls-15" d="m333.61,307.78c5.78,0,10.5-4.72,10.5-10.5s-4.72-10.5-10.5-10.5-10.5,4.72-10.5,10.5,4.72,10.5,10.5,10.5Z"/>
        <path class="cls-20" d="m333.61,306.53c5.09,0,9.24-4.15,9.24-9.24s-4.15-9.25-9.24-9.25-9.24,4.15-9.24,9.25,4.15,9.24,9.24,9.24Z"/>
        <path class="cls-31" d="m333.61,289.85h0c-2.46,0-4.47,2.01-4.47,4.47v5.92c0,1.94,1.25,3.59,2.98,4.21v-4.74c0-1.63.26-1.87.88-2.45.08-.08.17-.16.3-.29.14-.14.3-.28.46-.41.59-.49,1.2-1.01,1.2-2.91v-3.59c-.43-.14-.88-.21-1.36-.21h0Zm-.62,14.82v-4.95c0-1.26.17-1.42.61-1.82.1-.1.22-.21.32-.31.13-.13.26-.24.4-.36.74-.62,1.52-1.27,1.52-3.58v-3.21c1.34.77,2.25,2.22,2.25,3.87v5.92c0,2.46-2.01,4.47-4.47,4.47h0c-.21,0-.42-.02-.62-.05Z"/>
      </g>
      <path class="cls-19" d="m315.98,271.63c0,1,.54,1.89,1.34,2.39.43.27.93.42,1.47.42h33.93c.18,0,.36-.02.53-.05-.37,1.13-1.43,1.95-2.67,1.95h-33.93c-1.54,0-2.81-1.26-2.81-2.81,0-1.36.99-2.51,2.28-2.76-.09.27-.14.56-.14.86Z"/>
      <path class="cls-18" d="m319.61,266.53c.77,1.77,2.54,3.01,4.59,3.01h22.63c.99,0,1.91-.29,2.69-.79.26.6.41,1.27.41,1.97h-32.62c0-1.75.93-3.3,2.31-4.19Z"/>
      <path class="cls-18" d="m322.56,278.75c-.36,0-.67.13-.91.4-.25.26-.36.58-.33.94l.21,2.92h-3.52s-.05,0-.08,0l-.47-6.66h32.29l-.17,2.41h-27.02Zm1.31,32.83l.34,4.79c.04.61.55,1.08,1.16,1.08h21.29c-.46,1.31-1.67,3.08-4.86,3.08h-16.39c-5.06,0-5.14-4.45-5.14-4.45l-.32-4.5h3.92Z"/>
      <path class="cls-19" d="m321.39,284.15l1.87,26.42c.04.57.51,1,1.08,1h-4.46c-.57,0-1.04-.44-1.08-1l-1.87-26.42c-.02-.31.08-.58.29-.81.19-.21.44-.32.71-.34.02,0,.05,0,.08,0h4.46c-.31,0-.58.12-.79.34-.21.23-.31.5-.29.81Z"/>
    </g>
    <path class="cls-25" d="m78.76,160.93h60.56c3.07,0,5.58,2.51,5.58,5.58v31.05c0,.26-.15.48-.38.58-.24.1-.5.05-.68-.13l-9.52-9.52h-55.57c-3.07,0-5.58-2.51-5.58-5.58v-16.39c0-3.07,2.51-5.58,5.58-5.58Z"/>
    <g>
      <path class="cls-27" d="m95.66,299.35l2.91,3.64h13.23l2.91-3.64c10.45-28.19-29.5-28.19-19.05,0Z"/>
      <path class="cls-10" d="m99.43,299.35l1.76,3.64h7.99l1.76-3.64c6.32-28.19-17.83-28.19-11.51,0Z"/>
      <g>
        <path class="cls-36" d="m93.84,297.01h22.69c.79,0,1.43.64,1.43,1.43v6.48c0,.79-.64,1.43-1.43,1.43h-22.69c-.79,0-1.43-.64-1.43-1.43v-6.48c0-.79.64-1.42,1.42-1.42Z"/>
        <polygon class="cls-9" points="112.75 302.28 97.62 302.28 93.67 306.35 96.89 320.52 105.18 320.52 113.47 320.52 116.7 306.35 112.75 302.28"/>
        <polygon class="cls-19" points="93.67 306.35 94.33 309.14 116.04 309.14 116.7 306.35 93.67 306.35"/>
      </g>
    </g>
    <g>
      <path class="cls-28" d="m82.92,215.31h1.49c.36,0,.66.3.66.66h0c0,.36-.3.66-.66.66h-1.49c-.36,0-.66-.3-.66-.66h0c0-.37.3-.66.66-.66Z"/>
      <path class="cls-28" d="m81.5,225.55h-8.37c-.36,0-.66.3-.66.66h0c0,.37.3.66.66.66h8.37c.36,0,.66-.3.66-.66h0c0-.36-.3-.66-.66-.66Z"/>
      <path class="cls-28" d="m88.81,230.28h7.01c.36,0,.66.3.66.66h0c0,.36-.3.66-.66.66h-7.01c-.36,0-.66-.3-.66-.66h0c0-.36.3-.66.66-.66Z"/>
      <path class="cls-28" d="m93.79,239.2h2.03c.36,0,.66.3.66.66h0c0,.36-.3.66-.66.66h-2.03c-.36,0-.66-.3-.66-.66h0c0-.36.3-.66.66-.66Z"/>
      <path class="cls-28" d="m56.27,248.67h20.43c.36,0,.66.3.66.66h0c0,.36-.3.66-.66.66h-20.43c-.36,0-.66-.3-.66-.66h0c0-.36.3-.66.66-.66Z"/>
      <path class="cls-28" d="m81.5,253.41h-8.37c-.36,0-.66.29-.66.66h0c0,.36.3.66.66.66h8.37c.36,0,.66-.3.66-.66h0c0-.37-.3-.66-.66-.66Z"/>
      <path class="cls-28" d="m88.81,258.14h7.01c.36,0,.66.3.66.66h0c0,.36-.3.66-.66.66h-7.01c-.36,0-.66-.3-.66-.66h0c0-.36.3-.66.66-.66Z"/>
      <path class="cls-28" d="m93.79,267.06h2.03c.36,0,.66.3.66.66h0c0,.37-.3.66-.66.66h-2.03c-.36,0-.66-.3-.66-.66h0c0-.36.3-.66.66-.66Z"/>
      <path class="cls-28" d="m56.27,276.53h20.43c.36,0,.66.3.66.66h0c0,.36-.3.66-.66.66h-20.43c-.36,0-.66-.3-.66-.66h0c0-.37.3-.66.66-.66Z"/>
      <g>
        <path class="cls-5" d="m111.64,215.31h10.75c.36,0,.66.3.66.66h0c0,.36-.3.66-.66.66h-10.75c-.36,0-.66-.3-.66-.66h0c0-.37.3-.66.66-.66Z"/>
        <path class="cls-5" d="m71.32,219.77h21.06c.36,0,.66.3.66.66h0c0,.36-.3.66-.66.66h-21.06c-.36,0-.66-.3-.66-.66h0c0-.36.3-.66.66-.66Z"/>
        <path class="cls-5" d="m96,219.77h-.85c-.36,0-.66.3-.66.66h0c0,.36.3.66.66.66h.85c.36,0,.66-.3.66-.66h0c0-.36-.3-.66-.66-.66Z"/>
        <path class="cls-5" d="m122.39,219.77h-23.7c-.36,0-.66.3-.66.66h0c0,.36.3.66.66.66h23.7c.36,0,.66-.3.66-.66h0c0-.36-.3-.66-.66-.66Z"/>
        <path class="cls-5" d="m88.17,215.31h20.08c.36,0,.66.3.66.66h0c0,.36-.3.66-.66.66h-20.08c-.36,0-.66-.3-.66-.66h0c0-.37.3-.66.66-.66Z"/>
        <path class="cls-5" d="m39.69,225.55h30.21c.36,0,.66.3.66.66h0c0,.37-.3.66-.66.66h-30.21c-.36,0-.66-.3-.66-.66h0c0-.36.3-.66.66-.66Z"/>
        <path class="cls-5" d="m84.37,225.55h30.21c.36,0,.66.3.66.66h0c0,.37-.3.66-.66.66h-30.21c-.36,0-.66-.3-.66-.66h0c0-.36.3-.66.66-.66Z"/>
        <path class="cls-5" d="m99.86,230.28h10.91c.36,0,.66.3.66.66h0c0,.36-.3.66-.66.66h-10.91c-.36,0-.66-.3-.66-.66h0c0-.36.3-.66.66-.66Z"/>
        <path class="cls-5" d="m37.52,230.28h47.7c.36,0,.66.3.66.66h0c0,.36-.3.66-.66.66h-47.7c-.36,0-.66-.3-.66-.66h0c0-.36.3-.66.66-.66Z"/>
        <path class="cls-5" d="m63.07,234.8h47.7c.36,0,.66.3.66.66h0c0,.36-.3.66-.66.66h-47.7c-.36,0-.66-.3-.66-.66h0c0-.36.3-.66.66-.66Z"/>
        <path class="cls-5" d="m99.86,239.2h10.91c.36,0,.66.3.66.66h0c0,.36-.3.66-.66.66h-10.91c-.36,0-.66-.3-.66-.66h0c0-.36.3-.66.66-.66Z"/>
        <path class="cls-5" d="m56.27,239.2h33.66c.36,0,.66.3.66.66h0c0,.36-.3.66-.66.66h-33.66c-.36,0-.66-.3-.66-.66h0c0-.36.3-.66.66-.66Z"/>
        <path class="cls-5" d="m63.07,243.93h52.77c.36,0,.66.3.66.66h0c0,.37-.3.66-.66.66h-52.77c-.36,0-.66-.3-.66-.66h0c0-.36.3-.66.66-.66Z"/>
        <path class="cls-5" d="m81.46,248.67h34.38c.36,0,.66.3.66.66h0c0,.36-.3.66-.66.66h-34.38c-.36,0-.66-.3-.66-.66h0c0-.36.3-.66.66-.66Z"/>
        <path class="cls-5" d="m39.69,253.41h30.21c.36,0,.66.29.66.66h0c0,.36-.3.66-.66.66h-30.21c-.36,0-.66-.3-.66-.66h0c0-.37.3-.66.66-.66Z"/>
        <path class="cls-5" d="m84.37,253.41h30.21c.36,0,.66.29.66.66h0c0,.36-.3.66-.66.66h-30.21c-.36,0-.66-.3-.66-.66h0c0-.37.3-.66.66-.66Z"/>
        <path class="cls-5" d="m99.86,258.14h10.91c.36,0,.66.3.66.66h0c0,.36-.3.66-.66.66h-10.91c-.36,0-.66-.3-.66-.66h0c0-.36.3-.66.66-.66Z"/>
        <path class="cls-5" d="m37.52,258.14h47.7c.36,0,.66.3.66.66h0c0,.36-.3.66-.66.66h-47.7c-.36,0-.66-.3-.66-.66h0c0-.36.3-.66.66-.66Z"/>
        <path class="cls-5" d="m63.07,262.66h47.7c.36,0,.66.3.66.66h0c0,.37-.3.66-.66.66h-47.7c-.36,0-.66-.3-.66-.66h0c0-.36.3-.66.66-.66Z"/>
        <path class="cls-5" d="m99.86,267.06h10.91c.36,0,.66.3.66.66h0c0,.37-.3.66-.66.66h-10.91c-.36,0-.66-.3-.66-.66h0c0-.36.3-.66.66-.66Z"/>
        <path class="cls-5" d="m56.27,267.06h33.66c.36,0,.66.3.66.66h0c0,.37-.3.66-.66.66h-33.66c-.36,0-.66-.3-.66-.66h0c0-.36.3-.66.66-.66Z"/>
        <path class="cls-5" d="m63.07,271.79h52.77c.36,0,.66.3.66.66h0c0,.37-.3.66-.66.66h-52.77c-.36,0-.66-.29-.66-.66h0c0-.36.3-.66.66-.66Z"/>
        <path class="cls-5" d="m81.46,276.53h34.38c.36,0,.66.3.66.66h0c0,.36-.3.66-.66.66h-34.38c-.36,0-.66-.3-.66-.66h0c0-.37.3-.66.66-.66Z"/>
      </g>
    </g>
    <g>
      <path class="cls-25" d="m251.71,36.07h41.34c3,0,5.46,2.46,5.46,5.46v33.52c0,.25-.14.47-.38.56-.23.1-.49.05-.66-.13l-9.3-9.3h-36.46c-3,0-5.46-2.46-5.46-5.46v-19.19c0-3,2.46-5.46,5.46-5.46Z"/>
      <path class="cls-2" d="m261.58,56.4h-2.27v-4.63h-4.25v4.63h-2.27v-10.73h2.27v4.21h4.25v-4.21h2.27v10.73h0Zm6.85,0h-2.27v-8.83h-2.91v-1.89h8.1v1.89h-2.91v8.83h0Zm9.11,0l-2.58-8.42h-.07c.09,1.71.14,2.85.14,3.43v4.99h-2.03v-10.73h3.1l2.54,8.2h.04l2.69-8.2h3.09v10.73h-2.12v-5.08c0-.24,0-.52.01-.83,0-.31.04-1.14.1-2.49h-.07l-2.77,8.4h-2.08Zm9.62,0v-10.73h2.27v8.85h4.35v1.88h-6.62Z"/>
    </g>
    <path class="cls-2" d="m77.37,117.41c1.34,0,2.43-1.09,2.43-2.43s-1.09-2.43-2.43-2.43-2.43,1.09-2.43,2.43,1.09,2.43,2.43,2.43Z"/>
    <path class="cls-2" d="m289.75,180.84c1.34,0,2.43-1.09,2.43-2.43s-1.09-2.43-2.43-2.43-2.43,1.09-2.43,2.43,1.09,2.43,2.43,2.43Z"/>
    <path class="cls-2" d="m346.06,79.64c1.34,0,2.43-1.09,2.43-2.43s-1.09-2.43-2.43-2.43-2.43,1.09-2.43,2.43,1.09,2.43,2.43,2.43Z"/>
    <path class="cls-2" d="m388.11,305.56c1.34,0,2.43-1.09,2.43-2.43s-1.09-2.43-2.43-2.43-2.43,1.09-2.43,2.43,1.09,2.43,2.43,2.43Z"/>
    <path class="cls-2" d="m55.99,306.28c1.34,0,2.43-1.09,2.43-2.43s-1.09-2.43-2.43-2.43-2.43,1.09-2.43,2.43,1.09,2.43,2.43,2.43Z"/>
    <path class="cls-2" d="m180,24.12c.61,0,1.11-.5,1.11-1.1s-.5-1.11-1.11-1.11-1.11.5-1.11,1.11.5,1.1,1.11,1.1Z"/>
    <path class="cls-2" d="m104.45,89.68c.61,0,1.11-.5,1.11-1.1s-.5-1.11-1.11-1.11-1.11.5-1.11,1.11.5,1.1,1.11,1.1Z"/>
    <g>
      <path class="cls-32" d="m284.38,95.17h67.98c1.95,0,3.53,1.58,3.53,3.53v51.87c0,1.95-1.58,3.52-3.52,3.52h-67.99c-1.95,0-3.52-1.58-3.52-3.52v-51.87c0-1.95,1.58-3.53,3.53-3.53Z"/>
      <path class="cls-34" d="m282.55,93.29h67.99c1.95,0,3.52,1.58,3.52,3.52v51.87c0,1.95-1.58,3.53-3.53,3.53h-67.98c-1.95,0-3.53-1.58-3.53-3.53v-51.87c0-1.95,1.58-3.52,3.52-3.52Z"/>
      <path class="cls-11" d="m282.55,93.29h67.99c1.94,0,3.53,1.59,3.53,3.52v4.87c0,.54-.44.99-.99.99h-73.06c-.54,0-.99-.44-.99-.99v-4.87c0-1.94,1.59-3.52,3.53-3.52Z"/>
      <path class="cls-15" d="m284.73,106.6h19.06c.4,0,.73.33.73.73h0c0,.4-.33.73-.73.73h-19.06c-.4,0-.73-.33-.73-.73h0c0-.4.33-.73.73-.73Z"/>
      <path class="cls-15" d="m303.79,109.83h-8.51c-.4,0-.73.33-.73.73h0c0,.4.33.73.73.73h8.51c.4,0,.73-.33.73-.73h0c0-.4-.33-.73-.73-.73Z"/>
      <path class="cls-15" d="m291.56,109.83h.68c.4,0,.73.33.73.73h0c0,.4-.33.73-.73.73h-.68c-.4,0-.73-.33-.73-.73h0c0-.4.33-.73.73-.73Z"/>
      <path class="cls-15" d="m284.73,109.83h4.26c.4,0,.73.33.73.73h0c0,.4-.33.73-.73.73h-4.26c-.4,0-.73-.33-.73-.73h0c0-.4.33-.73.73-.73Z"/>
      <path class="cls-42" d="m284.73,113.67h19.06c.4,0,.73.33.73.73h0c0,.41-.33.73-.73.73h-19.06c-.4,0-.73-.33-.73-.73h0c0-.41.33-.73.73-.73Z"/>
      <path class="cls-15" d="m284.73,116.9h8.51c.4,0,.73.33.73.73h0c0,.4-.33.73-.73.73h-8.51c-.4,0-.73-.33-.73-.73h0c0-.4.33-.73.73-.73Z"/>
      <path class="cls-15" d="m296.96,116.9h-.68c-.4,0-.73.33-.73.73h0c0,.4.33.73.73.73h.68c.4,0,.73-.33.73-.73h0c0-.4-.33-.73-.73-.73Z"/>
      <path class="cls-15" d="m303.79,116.9h-4.26c-.4,0-.73.33-.73.73h0c0,.4.33.73.73.73h4.26c.4,0,.73-.33.73-.73h0c0-.4-.33-.73-.73-.73Z"/>
      <path class="cls-42" d="m284.73,120.73h19.06c.4,0,.73.33.73.73h0c0,.4-.33.73-.73.73h-19.06c-.4,0-.73-.33-.73-.73h0c0-.41.33-.73.73-.73Z"/>
      <path class="cls-15" d="m303.79,123.96h-8.51c-.4,0-.73.33-.73.73h0c0,.4.33.73.73.73h8.51c.4,0,.73-.33.73-.73h0c0-.4-.33-.73-.73-.73Z"/>
      <path class="cls-15" d="m291.56,123.96h.68c.4,0,.73.33.73.73h0c0,.4-.33.73-.73.73h-.68c-.4,0-.73-.33-.73-.73h0c0-.4.33-.73.73-.73Z"/>
      <path class="cls-15" d="m284.73,123.96h4.26c.4,0,.73.33.73.73h0c0,.4-.33.73-.73.73h-4.26c-.4,0-.73-.33-.73-.73h0c0-.4.33-.73.73-.73Z"/>
      <path class="cls-15" d="m284.73,127.79h19.06c.4,0,.73.33.73.73h0c0,.4-.33.73-.73.73h-19.06c-.4,0-.73-.33-.73-.73h0c0-.4.33-.73.73-.73Z"/>
      <path class="cls-15" d="m284.73,131.03h8.51c.4,0,.73.33.73.73h0c0,.4-.33.73-.73.73h-8.51c-.4,0-.73-.33-.73-.73h0c0-.4.33-.73.73-.73Z"/>
      <path class="cls-15" d="m303.11,131.03h.68c.4,0,.73.33.73.73h0c0,.4-.33.73-.73.73h-.68c-.4,0-.73-.33-.73-.73h0c0-.4.33-.73.73-.73Z"/>
      <path class="cls-15" d="m296.28,131.03h4.27c.4,0,.73.33.73.73h0c0,.4-.33.73-.73.73h-4.27c-.4,0-.73-.33-.73-.73h0c0-.4.33-.73.73-.73Z"/>
      <rect class="cls-42" x="284" y="134.86" width="20.52" height="1.46" rx=".73" ry=".73"/>
      <path class="cls-42" d="m288.44,138.09h8.52c.4,0,.73.33.73.73h0c0,.41-.33.73-.73.73h-8.51c-.4,0-.73-.33-.73-.73h0c0-.4.33-.73.73-.73Z"/>
      <path class="cls-42" d="m284.73,138.09h.68c.4,0,.73.33.73.73h0c0,.41-.33.73-.73.73h-.68c-.4,0-.73-.33-.73-.73h0c0-.4.33-.73.73-.73Z"/>
      <path class="cls-42" d="m299.52,138.09h4.27c.4,0,.73.33.73.73h0c0,.41-.33.73-.73.73h-4.26c-.4,0-.73-.33-.73-.73h0c0-.4.33-.73.73-.73Z"/>
      <rect class="cls-42" x="284" y="141.92" width="20.52" height="1.46" rx=".73" ry=".73"/>
      <path class="cls-15" d="m284.73,145.15h8.51c.4,0,.73.33.73.73h0c0,.4-.33.73-.73.73h-8.51c-.4,0-.73-.33-.73-.73h0c0-.4.33-.73.73-.73Z"/>
      <path class="cls-15" d="m296.96,145.15h-.68c-.4,0-.73.33-.73.73h0c0,.4.33.73.73.73h.68c.4,0,.73-.33.73-.73h0c0-.4-.33-.73-.73-.73Z"/>
      <path class="cls-15" d="m303.79,145.15h-4.26c-.4,0-.73.33-.73.73h0c0,.4.33.73.73.73h4.26c.4,0,.73-.33.73-.73h0c0-.4-.33-.73-.73-.73Z"/>
      <path class="cls-28" d="m315.98,106.6h32.24c.4,0,.73.33.73.73h0c0,.4-.33.73-.73.73h-32.24c-.4,0-.73-.33-.73-.73h0c0-.4.33-.73.73-.73Z"/>
      <path class="cls-28" d="m348.23,109.83h-14.92c-.4,0-.73.33-.73.73h0c0,.4.33.73.73.73h14.92c.4,0,.73-.33.73-.73h0c0-.4-.33-.73-.73-.73Z"/>
      <path class="cls-28" d="m327.2,109.83h2.05c.4,0,.73.33.73.73h0c0,.4-.33.73-.73.73h-2.05c-.4,0-.73-.33-.73-.73h0c0-.4.33-.73.73-.73Z"/>
      <path class="cls-28" d="m315.98,109.83h7.94c.4,0,.73.33.73.73h0c0,.4-.33.73-.73.73h-7.94c-.4,0-.73-.33-.73-.73h0c0-.4.33-.73.73-.73Z"/>
      <path class="cls-45" d="m315.98,113.67h32.24c.4,0,.73.33.73.73h0c0,.41-.33.73-.73.73h-32.24c-.4,0-.73-.33-.73-.73h0c0-.41.33-.73.73-.73Z"/>
      <path class="cls-28" d="m315.98,116.9h14.92c.4,0,.73.33.73.73h0c0,.4-.33.73-.73.73h-14.92c-.4,0-.73-.33-.73-.73h0c0-.4.33-.73.73-.73Z"/>
      <path class="cls-28" d="m337.01,116.9h-2.05c-.4,0-.73.33-.73.73h0c0,.4.33.73.73.73h2.05c.4,0,.73-.33.73-.73h0c0-.4-.33-.73-.73-.73Z"/>
      <path class="cls-28" d="m348.23,116.9h-7.95c-.4,0-.73.33-.73.73h0c0,.4.33.73.73.73h7.95c.4,0,.73-.33.73-.73h0c0-.4-.33-.73-.73-.73Z"/>
      <path class="cls-45" d="m315.98,120.73h32.24c.4,0,.73.33.73.73h0c0,.4-.33.73-.73.73h-32.24c-.4,0-.73-.33-.73-.73h0c0-.41.33-.73.73-.73Z"/>
      <path class="cls-28" d="m348.23,123.96h-14.92c-.4,0-.73.33-.73.73h0c0,.4.33.73.73.73h14.92c.4,0,.73-.33.73-.73h0c0-.4-.33-.73-.73-.73Z"/>
      <path class="cls-28" d="m327.2,123.96h2.05c.4,0,.73.33.73.73h0c0,.4-.33.73-.73.73h-2.05c-.4,0-.73-.33-.73-.73h0c0-.4.33-.73.73-.73Z"/>
      <path class="cls-28" d="m315.98,123.96h7.94c.4,0,.73.33.73.73h0c0,.4-.33.73-.73.73h-7.94c-.4,0-.73-.33-.73-.73h0c0-.4.33-.73.73-.73Z"/>
      <path class="cls-28" d="m315.98,127.79h32.24c.4,0,.73.33.73.73h0c0,.4-.33.73-.73.73h-32.24c-.4,0-.73-.33-.73-.73h0c0-.4.33-.73.73-.73Z"/>
      <path class="cls-28" d="m315.98,131.03h14.92c.4,0,.73.33.73.73h0c0,.4-.33.73-.73.73h-14.92c-.4,0-.73-.33-.73-.73h0c0-.4.33-.73.73-.73Z"/>
      <path class="cls-28" d="m346.17,131.03h2.05c.4,0,.73.33.73.73h0c0,.4-.33.73-.73.73h-2.05c-.4,0-.73-.33-.73-.73h0c0-.4.33-.73.73-.73Z"/>
      <path class="cls-28" d="m334.96,131.03h7.94c.4,0,.73.33.73.73h0c0,.4-.33.73-.73.73h-7.94c-.4,0-.73-.33-.73-.73h0c0-.4.33-.73.73-.73Z"/>
      <path class="cls-45" d="m315.98,134.86h32.24c.4,0,.73.33.73.73h0c0,.4-.33.73-.73.73h-32.24c-.4,0-.73-.33-.73-.73h0c0-.41.33-.73.73-.73Z"/>
      <path class="cls-45" d="m322.08,138.09h14.92c.4,0,.73.33.73.73h0c0,.41-.33.73-.73.73h-14.92c-.4,0-.73-.33-.73-.73h0c0-.4.33-.73.73-.73Z"/>
      <path class="cls-45" d="m315.98,138.09h2.05c.4,0,.73.33.73.73h0c0,.41-.33.73-.73.73h-2.05c-.4,0-.73-.33-.73-.73h0c0-.4.33-.73.73-.73Z"/>
      <path class="cls-45" d="m340.28,138.09h7.95c.4,0,.73.33.73.73h0c0,.41-.33.73-.73.73h-7.95c-.4,0-.73-.33-.73-.73h0c0-.4.33-.73.73-.73Z"/>
      <path class="cls-45" d="m315.98,141.92h32.24c.4,0,.73.33.73.73h0c0,.4-.33.73-.73.73h-32.24c-.4,0-.73-.33-.73-.73h0c0-.41.33-.73.73-.73Z"/>
      <path class="cls-28" d="m315.98,145.15h14.92c.4,0,.73.33.73.73h0c0,.4-.33.73-.73.73h-14.92c-.4,0-.73-.33-.73-.73h0c0-.4.33-.73.73-.73Z"/>
      <path class="cls-28" d="m337.01,145.15h-2.05c-.4,0-.73.33-.73.73h0c0,.4.33.73.73.73h2.05c.4,0,.73-.33.73-.73h0c0-.4-.33-.73-.73-.73Z"/>
      <path class="cls-28" d="m348.23,145.15h-7.95c-.4,0-.73.33-.73.73h0c0,.4.33.73.73.73h7.95c.4,0,.73-.33.73-.73h0c0-.4-.33-.73-.73-.73Z"/>
      <path class="cls-2" d="m335.97,99.67c.93,0,1.69-.76,1.69-1.69s-.76-1.69-1.69-1.69-1.69.76-1.69,1.69.76,1.69,1.69,1.69Z"/>
      <path class="cls-2" d="m342.07,99.67c.93,0,1.69-.76,1.69-1.69s-.76-1.69-1.69-1.69-1.69.76-1.69,1.69.76,1.69,1.69,1.69Z"/>
      <path class="cls-2" d="m348.17,99.67c.93,0,1.69-.76,1.69-1.69s-.76-1.69-1.69-1.69-1.69.76-1.69,1.69.76,1.69,1.69,1.69Z"/>
      <path class="cls-2" d="m276.21,84.7c.61,0,1.11-.5,1.11-1.11s-.5-1.1-1.11-1.1-1.11.5-1.11,1.1.5,1.11,1.11,1.11Z"/>
    </g>
    <path class="cls-2" d="m149.67,144.88c.61,0,1.11-.5,1.11-1.1s-.5-1.11-1.11-1.11-1.11.5-1.11,1.11.5,1.1,1.11,1.1Z"/>
    <path class="cls-2" d="m292.29,196.2c.61,0,1.11-.5,1.11-1.11s-.5-1.11-1.11-1.11-1.11.5-1.11,1.11.5,1.11,1.11,1.11Z"/>
    <path class="cls-2" d="m369.97,275.31c.61,0,1.1-.5,1.1-1.11s-.5-1.1-1.1-1.1-1.11.5-1.11,1.1.5,1.11,1.11,1.11Z"/>
    <path class="cls-2" d="m77.05,290.99c.61,0,1.11-.5,1.11-1.1s-.5-1.11-1.11-1.11-1.11.5-1.11,1.11.5,1.1,1.11,1.1Z"/>
    <g>
      <path class="cls-21" d="m169.22,192.06s-4.97,2.34-10.5,8.8c-3.95,4.61-20.32,48.2-30.2,75.68-2.44,6.8-12.01,30.51,7.01,43.98l4.1,3.67c6.3-13.08,22.07-47.86,22.07-47.86l7.52-84.26Z"/>
      <path class="cls-4" d="m169.22,192.06s-4.97,2.34-10.5,8.8c-.63.74-1.58,2.47-2.76,4.97,1.34,6.81,1.13,16.13-2.5,28.77-11.01,38.33-5.95,59.11-.95,61.29l.22.09c4.86-10.61,8.96-19.67,8.96-19.67l7.52-84.26h0Zm-44.66,98.32c-.28,11.2,8.97,20.83,19.87,23.61-1.85,3.98-3.52,7.53-4.8,10.19l-4.1-3.67c-11.69-8.28-12.58-20.42-10.97-30.13Z"/>
      <path class="cls-15" d="m262.76,122.28s1.3,23.22,9.66,38.12c0,0,2.71,3.56-.09,6.84-2.79,3.29-20.61,17.85-51.62,22.09-31.01,4.25-61.27-20.98-62.07-24.29-.79-3.31,9.5-26.95,8.69-47.06l95.43,4.29Z"/>
      <path class="cls-31" d="m262.76,122.28s.71,12.68,4.46,25.32c-5.29,4.36-16.36,15.65-14.99,32.73-8.17,3.75-18.72,7.26-31.52,9.01-14.17,1.94-28.18-2.27-39.29-7.74,1.85-4.83,2.28-10.42-.22-16.62-4.75-11.78-12.05-16.96-17.66-19.24,2.18-8.44,4.17-18.47,3.8-27.76l95.43,4.29Z"/>
      <path class="cls-21" d="m266.99,192.06s4.96,2.34,10.5,8.8c3.95,4.61,20.32,48.2,30.2,75.68,2.44,6.8,12.01,30.51-7.01,43.98l-4.1,3.67c-6.3-13.08-22.07-47.86-22.07-47.86l-7.52-84.26Z"/>
      <path class="cls-4" d="m266.99,192.06s4.96,2.34,10.5,8.8c.67.79,1.71,2.72,3.02,5.51-1.23,6.76-.94,15.92,2.6,28.22,11.01,38.33,5.95,59.11.95,61.29l-.52.22c-4.88-10.66-9.02-19.79-9.02-19.79l-7.52-84.26h0Zm44.95,100.41c-.84,10.4-9.78,19.1-20.13,21.61,1.84,3.95,3.49,7.47,4.77,10.11l4.1-3.67c10.87-7.7,12.4-18.73,11.27-28.05Z"/>
      <path class="cls-21" d="m218.02,179.14s46.94,11.1,49.1,13.12c2.16,2.02,11.95,50.38,11.97,55.1.02,4.36-11.28,64.27-13.12,80.63h-95.9c-1.84-16.36-13.15-76.27-13.12-80.63.02-4.72,9.81-53.08,11.97-55.1,2.16-2.02,49.1-13.12,49.1-13.12Z"/>
      <path class="cls-4" d="m218.02,179.14s46.94,11.1,49.1,13.12c2.16,2.02,11.95,50.38,11.97,55.1.02,4-9.5,54.81-12.49,75.78-34.08,2.04-53.59,17.49-35.65,12.33,17.95-5.16,16.04-39.42,16.04-47.07s-18.27-23.74-7.84-31.19c10.43-7.45,23.52-46.61,19.96-51.06-3.56-4.45-36.35-19.78-36.35-19.78,0,0-10.42,3.45-10.22-5.91,3.35-.81,5.48-1.31,5.48-1.31Z"/>
      <path class="cls-2" d="m218.02,179.14s13.11,2.98,26.05,6.14c-2.25,12.12-12.84,21.4-25.61,21.57h-.32c-12.99.17-23.95-9.19-26.24-21.55,12.97-3.16,26.12-6.15,26.12-6.15Z"/>
      <path class="cls-30" d="m218.02,179.14s13.11,2.98,26.05,6.14c-.65,3.49-1.99,6.74-3.87,9.61-8.86-4.52-17.44-8.53-17.44-8.53,0,0-10.42,3.45-10.22-5.91,0-.02,0-.04,0-.05,3.36-.78,5.47-1.26,5.47-1.26Z"/>
      <path class="cls-8" d="m217.4,143.98h.32c9.23-.11,16.87,7.36,16.98,16.59l.23,19.72c.11,9.23-7.36,16.87-16.59,16.98h-.32c-9.23.11-16.87-7.36-16.98-16.59l-.23-19.72c-.11-9.23,7.36-16.87,16.59-16.98Z"/>
      <g>
        <path class="cls-8" d="m180.83,129.5c-.26.04-.51.08-.76.13h0s0,0,0,0c-4.62.97-8.12,5.02-8.22,9.93-.11,5.71,4.44,10.44,10.15,10.54,5.71.11,10.44-4.44,10.54-10.15.06-3.32-1.45-6.31-3.84-8.25.26,3.06-.22,6.84-4.12,7.22l.11-5.97c.05-2.41-2.21-3.53-3.86-3.46Z"/>
        <path class="cls-8" d="m255.52,129.5c.26.04.51.08.76.13h0s0,0,0,0c4.62.97,8.12,5.02,8.22,9.93.11,5.71-4.44,10.44-10.15,10.54-5.72.11-10.44-4.44-10.54-10.15-.06-3.32,1.44-6.31,3.84-8.25-.26,3.06.22,6.84,4.12,7.22l-.11-5.97c-.05-2.41,2.21-3.53,3.86-3.46Z"/>
      </g>
      <path class="cls-13" d="m218.18,77.8h0c-19.49,0-35.44,15.94-35.44,35.43v32.23c0,19.49,15.95,35.43,35.44,35.43h0c19.49,0,35.43-15.95,35.43-35.43v-32.23c0-19.49-15.95-35.43-35.43-35.43Z"/>
      <path class="cls-29" d="m211.69,139.26c-.55-2.11-1.71-3.97-3.27-5.39l-14.81,16.55c1.57,1.39,3.55,2.34,5.72,2.66l12.36-13.82h0Zm-4.61-6.43l-14.65,16.38c-.67-.8-1.23-1.7-1.66-2.67l13.47-15.06c1.02.32,1.97.77,2.84,1.35Z"/>
      <path class="cls-29" d="m241.63,132.1l-14.25,15.92c-.59-.93-1.04-1.95-1.34-3.03l12.42-13.88c1.12.17,2.18.51,3.16.99h0Zm5.34,5.6c-.82-1.92-2.17-3.56-3.86-4.73l-14.7,16.43c1.35,1.54,3.12,2.7,5.13,3.31l13.43-15.01Z"/>
      <path class="cls-14" d="m226.94,179.8c15.28-3.93,26.66-17.86,26.66-34.33v-32.23c0-10.75-4.85-20.42-12.48-26.93-23.27,2.45-47.64,4.56-47.64,4.56,0,0-13.36,24.94-6,30.21l1.23-1.39h45.66c6.88,0,12.22,1.61,12.22,10v24.41c0,5.36-7.29,21.53-19.67,25.71Z"/>
      <g>
        <path class="cls-8" d="m238.26,147.22c-2.57-.05-4.7,2-4.75,4.57-.05,2.57,2,4.7,4.57,4.75,2.57.05,4.7-2,4.75-4.57.05-2.57-2-4.7-4.57-4.75Z"/>
        <path class="cls-8" d="m198.18,146.46c-2.57-.05-4.7,2-4.75,4.57-.05,2.57,2,4.7,4.57,4.75,2.57.05,4.7-2,4.75-4.57.05-2.57-2-4.7-4.57-4.75Z"/>
      </g>
      <path class="cls-31" d="m196.18,128.12c2.66-1.33,6.12-1.61,8.75-.04.54.32,1.26.14,1.58-.4.32-.54.14-1.26-.4-1.58-3.27-1.96-7.63-1.73-10.96-.04-.57.29-.8.98-.52,1.55.28.57.98.8,1.55.52Z"/>
      <path class="cls-31" d="m197.21,141.52c0-.9.36-1.76.99-2.39.64-.64,1.49-.99,2.39-.99s1.76.35,2.39.99c.64.64.99,1.49.99,2.39,0,.64.52,1.16,1.16,1.16s1.16-.52,1.16-1.16c0-1.52-.6-2.96-1.67-4.03-1.07-1.07-2.51-1.67-4.03-1.67s-2.96.6-4.03,1.67c-1.07,1.07-1.67,2.51-1.67,4.03,0,.64.52,1.16,1.16,1.16s1.16-.52,1.16-1.16Z"/>
      <path class="cls-31" d="m240.48,141.52c0,.64.52,1.16,1.16,1.16s1.16-.52,1.16-1.16c0-1.52-.6-2.96-1.67-4.03-1.07-1.07-2.51-1.67-4.03-1.67s-2.96.6-4.03,1.67c-1.07,1.07-1.67,2.51-1.67,4.03,0,.64.52,1.16,1.16,1.16s1.16-.52,1.16-1.16c0-.9.36-1.76.99-2.39.64-.64,1.49-.99,2.39-.99s1.76.35,2.39.99c.64.64.99,1.49.99,2.39Z"/>
      <path class="cls-31" d="m241.51,128.12c.57.28,1.26.05,1.55-.51.29-.57.05-1.26-.52-1.55-3.3-1.69-7.72-1.9-10.96.04-.54.32-.72,1.04-.4,1.58.32.54,1.04.72,1.58.4,2.62-1.57,6.09-1.29,8.75.04Z"/>
      <path class="cls-28" d="m152.09,299.61l-1.81,1.73,25.88,13.81-5.79,9.06h-29.51s-6.73-3-6.2-6.09c.53-3.1,6.95-20.42,17.42-18.5Z"/>
      <path class="cls-4" d="m166.25,309.86l9.91,5.29-5.79,9.06h-29.51s-6.73-3-6.2-6.09c.19-1.08,1.09-3.9,2.64-7.03,5.49,3.18,12.07,4.57,18.33,3.22,5.15-1.11,8.47-2.74,10.61-4.43Z"/>
      <path class="cls-14" d="m187.07,314.51s-4.98-3.33-7.65-4.94c-2.68-1.61-5.51-.92-7.2.08-1.68,1-9.11,6.99-10.26,8.2-1.15,1.22,5.51,3.89,6.2,3.89s18.91-7.24,18.91-7.24Z"/>
      <path class="cls-28" d="m284.12,299.61l1.81,1.73-25.88,13.81,5.79,9.06h29.51s6.74-3,6.2-6.09c-.54-3.1-6.95-20.42-17.43-18.5Z"/>
      <path class="cls-4" d="m270.18,309.74l-10.13,5.4,5.79,9.06h29.51s6.74-3,6.2-6.09c-.18-1.07-1.06-3.81-2.56-6.87-5.43,3.07-11.89,4.38-18.05,3.05-5.27-1.14-8.62-2.82-10.76-4.55Z"/>
      <path class="cls-14" d="m249.14,314.51s4.97-3.33,7.66-4.94c2.68-1.61,5.51-.92,7.2.08,1.68,1,9.11,6.99,10.26,8.2,1.15,1.22-5.51,3.89-6.2,3.89s-18.91-7.24-18.91-7.24Z"/>
      <path class="cls-15" d="m151.65,326.03h132.73c2.47,0,4.49-2.02,4.49-4.49h0c0-2.47-2.02-4.49-4.49-4.49h-132.73c-2.47,0-4.49,2.02-4.49,4.49h0c0,2.47,2.02,4.49,4.49,4.49Z"/>
      <path class="cls-15" d="m249.88,130v4.57c0,2.2,2.04,4.65,3.73,4.65v-4.99s.71-3.68,5.26-3.68c13.95-16.03,12.11-41.49-2.78-54.68-14.89-13.2-46.86-14.04-52.45-12.18-5.58,1.86-11.33,11.33-11.33,11.33,0,0-4.74-4.23-9.14-2.03-4.4,2.2-19.12,29.94-19.12,36.88s13.43,20.68,13.43,20.68c4.55,0,5.26,3.68,5.26,3.68v4.99c1.69,0,3.73-2.45,3.73-4.65v-4.57s3.96-6.28,3.96-12.88h9.46c.91,0,1.8-.99,2-1.95.2-.96.81-7.36,1.02-8.88.2-1.52.71-2.28,1.01-1.88.31.41.51,5.69,1.01,9.09.5,3.35,2.77,3.62,2.84,3.63h39.74s.32,8.04,2.36,12.88Z"/>
      <path class="cls-11" d="m266.01,90.81c-1.82-5.13-4.7-9.84-8.56-13.67-9.68,11.35-33.51,30.92-61.61-7.04-.56.69-1.07,1.35-1.52,1.96,3.44,7.87,10.3,19.43,22.87,26.64,17.73,10.17,40.38,5.81,48.83-7.9Z"/>
      <path class="cls-31" d="m249.88,130v4.57c0,2.2,2.04,4.65,3.73,4.65v-4.99s.71-3.68,5.26-3.68c8.66-9.95,11.23-23.54,8.38-35.57-1.11,5.87-5.57,17.27-23.51,17.27-24.15,0-38.44-12.69-39.91-14.03-1.47-1.34-2.49.31-2.49.31,0,0-8.24,12.54-22.45,8.73-5.99-1.61-8.54-6.89-9.5-12.47-3.04,6.36-5.33,12.34-5.33,15.07,0,6.94,13.43,20.68,13.43,20.68,4.55,0,5.26,3.68,5.26,3.68v4.99c1.69,0,3.73-2.45,3.73-4.65v-4.57s3.96-6.28,3.96-12.88h9.46c.91,0,1.8-.99,2-1.95.2-.96.81-7.36,1.02-8.88.2-1.52.71-2.28,1.01-1.88.31.41.51,5.69,1.01,9.09.5,3.35,2.77,3.62,2.84,3.63h39.74s.32,8.04,2.36,12.88Z"/>
      <g>
        <path class="cls-31" d="m228.6,156.07c-.1,5.56-4.69,9.98-10.25,9.88s-9.98-4.69-9.88-10.25h.02c.02-.96.81-1.73,1.77-1.71l16.62.31c.96.02,1.72.81,1.71,1.77h.02Z"/>
        <path class="cls-24" d="m224.71,163.84c-1.75,1.36-3.97,2.16-6.36,2.11-1.95-.04-3.77-.63-5.29-1.62.81-2.05,3.1-3.55,5.82-3.6,2.6-.05,4.85,1.24,5.83,3.11Z"/>
        <path class="cls-2" d="m210.82,154l15.62.29c.21,1.73-.62,3.46-1.79,3.82-1.42.43-12.72-.07-13.5-.97-.38-.44-.41-1.82-.33-3.14Z"/>
      </g>
      <path class="cls-26" d="m215.42,147.18s-1.38,2.53-.95,3.87c.44,1.34,2.33.63,2.53-.55.2-1.19-.38-3.42-.51-3.68-.14-.26-.73-.36-1.07.35Z"/>
      <rect x="209.68" y="290.82" width="18.25" height="28.26"/>
      <path class="cls-15" d="m178.19,326.33h79.66c3.2,0,5.81-2.61,5.81-5.81h0c0-3.2-2.61-5.81-5.81-5.81h-79.66c-3.19,0-5.81,2.61-5.81,5.81h0c0,3.19,2.61,5.81,5.81,5.81Z"/>
      <g>
        <g>
          <path class="cls-12" d="m142.66,214.19h88.27v91.78h-76.68c-3.24,0-6.23-2.65-6.64-5.9l-10.1-79.99c-.41-3.25,1.91-5.9,5.15-5.9Z"/>
          <path class="cls-22" d="m142.66,214.19h88.27v91.78h-76.68c-3.24,0-6.23-2.65-6.64-5.9l-10.1-79.99c-.41-3.25,1.91-5.9,5.15-5.9Z"/>
          <path class="cls-12" d="m149.02,269.92h81.91v4.57h-81.33c-1.26,0-2.41-1.03-2.57-2.28h0c-.16-1.26.74-2.29,2-2.29Z"/>
          <path class="cls-12" d="m151.18,276.87h79.74v25.82h-76.48c-1.97,0-3.78-1.61-4.03-3.58l-2.36-18.67c-.25-1.97,1.16-3.57,3.12-3.57Z"/>
          <path class="cls-15" d="m155.7,232.79h19.47c1.2,0,2.31.98,2.46,2.19l3.56,28.21c.15,1.2-.71,2.19-1.91,2.19h-19.47c-1.2,0-2.31-.98-2.46-2.19l-3.56-28.21c-.15-1.2.71-2.19,1.91-2.19Z"/>
          <path class="cls-12" d="m153.12,232.79h19.47c1.2,0,2.31.98,2.46,2.19l3.56,28.21c.15,1.2-.71,2.19-1.91,2.19h-19.47c-1.2,0-2.31-.98-2.46-2.19l-3.56-28.21c-.15-1.2.71-2.19,1.91-2.19Z"/>
          <path class="cls-15" d="m156.73,249.08h0c.64,0,1.23.53,1.31,1.17l1.24,9.79c.08.64-.38,1.16-1.02,1.16h0c-.64,0-1.23-.52-1.31-1.16l-1.24-9.79c-.08-.64.38-1.17,1.02-1.17Z"/>
          <path class="cls-15" d="m162.23,249.08h0c.64,0,1.23.53,1.31,1.17l1.24,9.79c.08.64-.38,1.16-1.02,1.16h0c-.64,0-1.23-.52-1.31-1.16l-1.24-9.79c-.08-.64.38-1.17,1.02-1.17Z"/>
          <path class="cls-15" d="m167.73,249.08h0c.64,0,1.23.53,1.31,1.17l1.24,9.79c.08.64-.38,1.16-1.02,1.16h0c-.64,0-1.23-.52-1.31-1.16l-1.24-9.79c-.08-.64.38-1.17,1.02-1.17Z"/>
          <path class="cls-15" d="m173.23,249.08h0c.64,0,1.23.53,1.31,1.17l1.24,9.79c.08.64-.38,1.16-1.02,1.16h0c-.64,0-1.23-.52-1.31-1.16l-1.24-9.79c-.08-.64.38-1.17,1.02-1.17Z"/>
          <path class="cls-12" d="m142.87,221.24h88.06v4.57h-87.48c-1.26,0-2.42-1.03-2.57-2.29h0c-.16-1.26.74-2.28,2-2.28Z"/>
          <path class="cls-15" d="m152.09,278.96h78.84v1.79h-78.61c-.49,0-.95-.4-1.01-.89h0c-.06-.49.29-.89.78-.89h0Zm2.42,19.12h76.42v1.79h-76.2c-.49,0-.94-.4-1.01-.89h0c-.06-.49.29-.9.78-.9h0Zm-.48-3.82h76.9v1.79h-76.68c-.49,0-.95-.4-1.01-.89h0c-.06-.49.29-.89.78-.89h0Zm-.48-3.83h77.39v1.79h-77.16c-.49,0-.95-.4-1.01-.89h0c-.06-.49.29-.89.78-.89h0Zm-.48-3.83h77.87v1.79h-77.64c-.49,0-.95-.4-1.01-.89h0c-.06-.49.29-.9.78-.9h0Zm-.48-3.82h78.35v1.79h-78.13c-.49,0-.94-.4-1.01-.89h0c-.06-.49.29-.89.78-.89Z"/>
          <path class="cls-12" d="m185.83,230.68h45.1v33.97h-40.81c-1.04,0-1.99-.85-2.12-1.88l-3.81-30.2c-.13-1.04.61-1.88,1.65-1.88Z"/>
          <path class="cls-2" d="m189.06,235.05h27.02c.55,0,1.05.45,1.12.99h0c.07.55-.32.99-.87.99h-27.02c-.55,0-1.05-.45-1.12-.99h0c-.07-.55.32-.99.87-.99Z"/>
          <path class="cls-15" d="m189.69,240.02h41.24v1.99h-40.99c-.55,0-1.05-.45-1.12-.99h0c-.07-.55.32-.99.87-.99Z"/>
          <path class="cls-15" d="m190.33,245.08h40.6v1.99h-40.35c-.55,0-1.05-.45-1.12-.99h0c-.07-.55.32-.99.87-.99Z"/>
          <path class="cls-15" d="m190.97,250.15h39.96v1.99h-39.71c-.55,0-1.05-.45-1.12-.99h0c-.07-.54.32-.99.87-.99Z"/>
          <path class="cls-15" d="m191.61,255.21h39.32v1.99h-39.07c-.55,0-1.05-.45-1.12-.99h0c-.07-.55.32-.99.87-.99Z"/>
          <path class="cls-15" d="m192.25,260.28h38.68v1.98h-38.43c-.55,0-1.05-.45-1.12-.99h0c-.07-.55.32-.99.87-.99Z"/>
        </g>
        <g>
          <path class="cls-23" d="m279.68,287.43s1.98-3.24,4.75-3.38c2.77-.14,2.68,3.23,1.74,3.64-.94.41-6.49-.26-6.49-.26Z"/>
          <path class="cls-23" d="m280.12,293.19l-.69-.15h0l-2.35-.52c.25,8.27,9.07,7.08,7.88.71l-3.87-.85-.14.42c-.1.3-.41.48-.7.42l-.12-.03Z"/>
          <path class="cls-12" d="m228.72,214.19h66.23c3.24,0,5.57,2.65,5.16,5.9l-10.01,79.99c-.41,3.24-3.39,5.9-6.64,5.9h-54.74v-91.78Z"/>
          <path class="cls-22" d="m228.72,214.19h62.36c3.24,0,5.57,2.65,5.16,5.9l-10.02,79.99c-.41,3.24-3.39,5.9-6.64,5.9h-50.87v-91.78Z"/>
          <path class="cls-12" d="m228.72,269.92h55.17c1.26,0,2.16,1.03,2,2.29h0c-.16,1.26-1.31,2.28-2.57,2.28h-54.6v-4.57Z"/>
          <path class="cls-12" d="m228.72,276.87h53.01c1.97,0,3.37,1.61,3.13,3.57l-2.34,18.67c-.25,1.97-2.06,3.58-4.02,3.58h-49.78v-25.82Z"/>
          <path class="cls-12" d="m228.72,221.24h61.26c1.26,0,2.16,1.03,2,2.28h0c-.16,1.26-1.31,2.29-2.57,2.29h-60.69v-4.57Z"/>
          <path class="cls-15" d="m228.72,278.96h52.11c.49,0,.84.4.78.89h0c-.06.49-.52.89-1.01.89h-51.88v-1.79h0Zm0,19.12h49.71c.49,0,.84.4.78.9h0c-.06.49-.51.89-1.01.89h-49.49v-1.79h0Zm0-3.82h50.19c.49,0,.84.4.78.89h0c-.06.49-.51.89-1.01.89h-49.97v-1.79h0Zm0-3.83h50.67c.49,0,.84.4.78.89h0c-.06.49-.52.89-1.01.89h-50.44v-1.79h0Zm0-3.83h51.15c.49,0,.84.4.78.9h0c-.06.49-.51.89-1.01.89h-50.92v-1.79h0Zm0-3.82h51.63c.49,0,.84.4.78.89h0c-.06.49-.51.89-1.01.89h-51.4v-1.79Z"/>
          <path class="cls-15" d="m277.54,247.1h2.02c.73,0,1.25.6,1.16,1.33l-.73,5.84c-.09.73-.76,1.33-1.49,1.33h-2.02c-.73,0-1.25-.6-1.16-1.33l.73-5.84c.09-.73.76-1.33,1.49-1.33Z"/>
          <path class="cls-12" d="m278.23,234.55h3.78c1.37,0,2.34,1.12,2.17,2.48l-1.37,10.93c-.17,1.36-1.43,2.48-2.79,2.48h-3.78c-1.37,0-2.34-1.12-2.17-2.48l1.37-10.93c.17-1.37,1.43-2.48,2.79-2.48Z"/>
          <path class="cls-12" d="m228.72,230.68h37.38c1.04,0,1.78.85,1.65,1.88l-3.78,30.2c-.13,1.04-1.08,1.88-2.12,1.88h-33.13v-33.97Z"/>
          <path class="cls-15" d="m228.72,240.02h31.25c.55,0,.94.45.87.99h0c-.07.55-.57.99-1.12.99h-31v-1.99Z"/>
          <path class="cls-15" d="m228.72,245.08h30.61c.54,0,.94.45.87.99h0c-.07.55-.57.99-1.12.99h-30.36v-1.99Z"/>
          <path class="cls-15" d="m228.72,250.15h29.98c.55,0,.94.45.87.99h0c-.07.55-.57.99-1.12.99h-29.73v-1.99Z"/>
          <path class="cls-15" d="m228.72,255.21h29.34c.55,0,.94.45.87.99h0c-.07.55-.57.99-1.12.99h-29.1v-1.99Z"/>
          <path class="cls-15" d="m228.72,260.28h28.71c.55,0,.94.45.87.99h0c-.07.55-.57.99-1.12.99h-28.46v-1.98Z"/>
          <path class="cls-22" d="m260.59,235.05h-10.6c-.55,0-1.05.45-1.12.99h0c-.07.55.32.99.87.99h10.6c.55,0,1.05-.45,1.12-.99h0c.07-.55-.32-.99-.87-.99Z"/>
        </g>
        <path class="cls-22" d="m246.48,235.05h-25.12c-.55,0-1.05.45-1.12.99h0c-.07.55.32.99.87.99h25.12c.55,0,1.05-.45,1.12-.99h0c.07-.55-.32-.99-.87-.99Z"/>
      </g>
      <path class="cls-2" d="m122.98,203c.61,0,1.11-.5,1.11-1.11s-.5-1.11-1.11-1.11-1.11.5-1.11,1.11.5,1.11,1.11,1.11Z"/>
      <path class="cls-2" d="m126.87,251.58c.61,0,1.11-.6,1.11-1.34s-.5-1.34-1.11-1.34-1.1.6-1.1,1.34.5,1.34,1.1,1.34Z"/>
      <path class="cls-31" d="m200.95,129.81c3.35,0,6.38,1.36,8.58,3.55,1.62,1.62,2.78,3.7,3.28,6.02,2.17-.51,7.15-1.35,12.22-.02.5-2.32,1.66-4.39,3.28-6,2.19-2.19,5.23-3.55,8.58-3.55s6.38,1.36,8.58,3.55c1.02,1.02,1.87,2.23,2.47,3.57l4.7-3.42c.45-.33,1.08-.23,1.4.22.33.45.23,1.08-.22,1.4l-5.19,3.78c.25.97.38,1.98.38,3.03,0,3.35-1.36,6.38-3.55,8.58-2.19,2.19-5.23,3.55-8.58,3.55s-6.38-1.36-8.58-3.55c-2.19-2.19-3.55-5.23-3.55-8.58,0-.19,0-.37.01-.56-4.94-1.39-9.86-.45-11.7,0,0,.18.01.37.01.55,0,3.35-1.36,6.38-3.55,8.58-2.19,2.19-5.23,3.55-8.58,3.55s-6.38-1.36-8.58-3.55c-2.19-2.19-3.55-5.23-3.55-8.58,0-1.06.14-2.1.39-3.08l-5.11-3.72c-.45-.33-.55-.96-.22-1.4.33-.45.96-.55,1.4-.22l4.64,3.37c.6-1.32,1.44-2.51,2.45-3.52,2.19-2.19,5.23-3.55,8.58-3.55h0Zm43.08,4.98c-1.83-1.83-4.36-2.96-7.15-2.96s-5.32,1.13-7.15,2.96c-1.83,1.83-2.96,4.36-2.96,7.15s1.13,5.32,2.96,7.15c1.83,1.83,4.36,2.96,7.15,2.96s5.32-1.13,7.15-2.96c1.83-1.83,2.96-4.36,2.96-7.15s-1.13-5.32-2.96-7.15h0Zm-35.93,0c-1.83-1.83-4.36-2.96-7.15-2.96s-5.32,1.13-7.15,2.96-2.96,4.36-2.96,7.15,1.13,5.32,2.96,7.15c1.83,1.83,4.36,2.96,7.15,2.96s5.32-1.13,7.15-2.96c1.83-1.83,2.96-4.36,2.96-7.15s-1.13-5.32-2.96-7.15Z"/>
    </g>
    <path class="cls-1" d="m188.58,46.75c-.96-.96-2.28-1.55-3.74-1.55s-2.78.59-3.74,1.55c-.96.96-1.55,2.28-1.55,3.74s.59,2.78,1.55,3.74c.96.96,2.28,1.55,3.74,1.55s2.78-.59,3.74-1.55c.96-.96,1.55-2.28,1.55-3.74s-.59-2.78-1.55-3.74h0Zm-1.14-5.24c.73.21,1.43.51,2.07.88.66.38,1.27.84,1.82,1.37.11.1.27.12.39.05l2.46-1.42h.01c.14-.09.3-.1.45-.06.15.04.29.14.37.28v.02s1.74,3,1.74,3c.08.14.1.31.06.46-.04.15-.14.29-.28.37h-.02s-2.44,1.42-2.44,1.42c-.13.08-.19.22-.15.36h0c.09.36.16.73.2,1.12.05.37.07.75.07,1.14s-.02.77-.07,1.14c-.05.38-.11.75-.2,1.12-.04.15.04.3.17.37l2.44,1.41h0c.14.09.24.22.28.37.04.15.02.32-.06.46l-1.74,3.01h0c-.08.14-.22.24-.37.28-.15.04-.32.02-.46-.06h-.02s-2.44-1.42-2.44-1.42c-.13-.07-.29-.05-.39.05-.55.53-1.16.99-1.82,1.37-.65.38-1.35.68-2.09.89-.14.04-.24.17-.24.31v2.84c0,.17-.07.32-.18.43-.11.11-.26.18-.43.18h-3.48c-.17,0-.32-.07-.43-.18-.11-.11-.18-.26-.18-.43v-2.84c0-.15-.11-.28-.25-.32-.73-.21-1.43-.51-2.07-.88-.66-.38-1.27-.85-1.82-1.37-.11-.11-.28-.12-.4-.04l-2.44,1.41c-.15.08-.31.1-.46.06-.15-.04-.29-.14-.37-.28v-.02s-1.74-3-1.74-3h0c-.08-.14-.1-.31-.06-.46.04-.15.14-.29.28-.37l2.46-1.42c.13-.07.19-.22.15-.36h0c-.09-.36-.16-.74-.21-1.12-.04-.37-.07-.75-.07-1.14s.02-.77.07-1.14c.05-.38.12-.75.21-1.12.04-.15-.04-.3-.17-.37l-2.44-1.41c-.14-.08-.24-.22-.28-.37-.04-.15-.02-.32.06-.46v-.02s1.74-3,1.74-3h0c.08-.14.22-.24.37-.28.15-.04.32-.02.46.06h0l2.46,1.42c.13.08.29.05.39-.05.54-.52,1.15-.98,1.81-1.36.65-.38,1.35-.68,2.09-.89.14-.04.24-.17.24-.31v-2.84c0-.17.07-.32.18-.43.11-.11.26-.18.43-.18h3.48c.17,0,.32.07.43.18.11.11.18.26.18.43v2.84c0,.15.11.28.25.32Z"/>
    <path class="cls-1" d="m146.16,65.59c-1.05-1.05-2.31-1.9-3.72-2.48-1.35-.56-2.83-.87-4.38-.87s-3.02.31-4.38.87c-1.4.58-2.67,1.43-3.72,2.48-1.05,1.05-1.9,2.31-2.48,3.72-.56,1.35-.87,2.83-.87,4.38s.31,3.03.87,4.38c.58,1.4,1.43,2.67,2.48,3.72,1.05,1.05,2.31,1.9,3.72,2.48,1.35.56,2.83.87,4.38.87s3.03-.31,4.38-.87c1.4-.58,2.67-1.43,3.72-2.49s1.9-2.31,2.48-3.72c.56-1.35.87-2.83.87-4.38s-.31-3.03-.87-4.38c-.58-1.4-1.43-2.67-2.48-3.72h0Zm-4.12-1.51c1.27.52,2.41,1.3,3.37,2.26.96.96,1.73,2.1,2.26,3.37.51,1.22.79,2.56.79,3.97s-.28,2.75-.79,3.98c-.52,1.27-1.3,2.41-2.26,3.37-.96.96-2.1,1.73-3.37,2.26-1.22.51-2.57.79-3.98.79s-2.75-.28-3.97-.79c-1.27-.52-2.41-1.3-3.37-2.26-.96-.96-1.73-2.1-2.26-3.37-.51-1.22-.79-2.57-.79-3.98s.28-2.75.79-3.97c.52-1.27,1.3-2.41,2.26-3.37.96-.96,2.1-1.73,3.37-2.26,1.22-.51,2.56-.79,3.97-.79s2.75.28,3.98.79h0Zm1.27-8.42c.72.21,1.42.46,2.11.75.7.3,1.38.64,2.03,1.01.66.38,1.3.81,1.91,1.27.61.46,1.2.96,1.74,1.49.19.19.44.3.68.33.25.03.52-.02.75-.15,1.68-.97,3.45-1.93,5.1-2.94.08-.04.16-.07.25-.08.1,0,.19,0,.28.02.09.02.18.07.26.13.07.06.14.13.19.21,1.23,1.85,2.46,4.25,3.59,6.22.05.09.08.17.09.26.01.09,0,.19-.02.29-.03.09-.07.18-.13.26-.06.07-.13.14-.21.19-1.51,1-3.46,2-5.06,2.93-.24.14-.41.34-.51.57-.03.08-.06.16-.08.25l-.1.03.12.47c.09.37.17.74.24,1.11.07.36.12.73.17,1.13.05.38.08.76.1,1.14.02.37.03.75.03,1.15s-.01.79-.03,1.15c-.02.38-.06.76-.1,1.14-.05.39-.11.77-.17,1.13-.07.37-.15.74-.24,1.12-.07.28-.03.55.08.79.11.24.3.44.54.56l4.49,2.59h0s.53.31.53.31c.08.05.16.11.21.19.06.08.1.16.13.26.02.1.03.19.02.29-.01.09-.04.18-.09.26l-3.32,5.75h0s-.27.46-.27.46c-.05.09-.11.15-.19.21-.08.06-.16.1-.26.13-.09.02-.19.03-.29.02-.09-.01-.18-.04-.26-.09-1.61-1.01-3.42-1.97-5.08-2.93-.24-.13-.5-.18-.74-.15-.25.03-.5.14-.69.32h0c-.55.53-1.13,1.03-1.74,1.49-.61.46-1.25.88-1.91,1.26-.66.38-1.34.72-2.04,1.02-.69.29-1.41.55-2.15.76-.26.07-.48.23-.63.43-.15.2-.24.46-.24.73v5.85c0,.1-.02.19-.06.28-.04.09-.09.17-.16.23-.07.07-.15.12-.23.16-.08.04-.18.05-.28.05h-7.18c-.1,0-.19-.02-.28-.05-.09-.04-.17-.09-.24-.16-.07-.07-.12-.15-.16-.24-.04-.08-.06-.18-.06-.28v-5.85c0-.28-.1-.54-.26-.74-.17-.21-.4-.36-.66-.43-.72-.21-1.42-.46-2.11-.75-.7-.3-1.38-.64-2.03-1.01-.66-.38-1.3-.8-1.91-1.26-.61-.46-1.2-.96-1.74-1.49-.2-.19-.46-.31-.72-.33-.27-.02-.54.04-.77.19l-5.01,2.89c-.08.05-.17.08-.26.09-.09.01-.19,0-.29-.02-.09-.02-.18-.07-.26-.13-.07-.06-.14-.13-.19-.21-1.19-2.08-2.4-4.14-3.59-6.22-.05-.08-.08-.17-.09-.26-.01-.09,0-.19.02-.29.03-.09.07-.18.13-.26.06-.07.12-.14.21-.19l5.07-2.93c.23-.14.41-.34.51-.57.03-.06.05-.13.06-.19l.13-.03-.13-.54c-.09-.37-.17-.74-.24-1.11-.07-.36-.12-.74-.17-1.13-.05-.38-.08-.76-.1-1.14-.02-.37-.03-.75-.03-1.15s.01-.78.03-1.15c.02-.38.06-.76.1-1.14.05-.4.11-.78.17-1.13.07-.37.15-.74.24-1.11.07-.28.04-.55-.08-.79-.11-.24-.3-.44-.54-.56l-5.02-2.9c-.08-.05-.15-.11-.21-.18-.06-.07-.1-.16-.13-.26-.02-.1-.03-.19-.02-.29.01-.09.04-.18.09-.26,1.23-1.82,2.45-4.26,3.59-6.22.05-.08.11-.16.19-.21.08-.06.16-.1.26-.13.1-.03.19-.03.29-.02.09.01.18.04.26.09l5.07,2.93c.24.14.5.19.76.15.25-.04.5-.15.69-.34.55-.53,1.13-1.02,1.74-1.48.6-.45,1.24-.87,1.9-1.26.65-.38,1.34-.72,2.04-1.02.69-.29,1.41-.55,2.15-.76.26-.07.48-.23.63-.43.15-.2.24-.46.24-.72v-5.85c0-.1.02-.19.06-.27.04-.09.09-.17.16-.24.07-.07.15-.12.24-.16.08-.03.18-.05.28-.05h7.18c.1,0,.19.02.28.05.09.04.17.09.24.16.13.13.21.31.21.51v5.85c0,.28.1.54.26.74.17.21.4.36.67.43h0Zm2.53-.22c.74.31,1.45.67,2.14,1.07.7.4,1.38.85,2.02,1.34.64.48,1.26,1.01,1.84,1.57.02.02.05.03.08.04.03,0,.06,0,.09-.02,1.71-.99,3.41-1.97,5.12-2.95.2-.11.42-.18.64-.2.23-.02.46,0,.67.05.22.06.44.16.63.31.18.14.34.31.46.52,1.24,2,2.41,4.17,3.59,6.22.12.21.19.43.22.66.03.24.01.47-.05.7-.06.23-.16.44-.31.63-.14.18-.31.34-.52.46-1.63,1.01-3.4,1.96-5.07,2.93-.03.02-.05.04-.06.07-.01.03-.01.06,0,.09l.12.47h0c.05.23.1.46.14.7.07.41.14.8.18,1.2.05.39.08.79.11,1.2.02.41.04.82.04,1.21s-.01.8-.04,1.21c-.02.41-.06.81-.11,1.2-.05.39-.11.79-.18,1.19-.08.4-.16.8-.25,1.18,0,.03,0,.06,0,.09.01.03.04.06.06.07,1.86,1,3.75,2.17,5.59,3.23l-.07.08.06.07c.14.19.25.4.31.63.06.22.08.46.05.7-.03.23-.1.45-.22.66l-3.86,6.68-.07-.04s-.08.07-.12.1c-.19.14-.4.25-.63.31-.22.06-.46.08-.69.05-.22-.03-.44-.1-.64-.21-1.69-.9-3.43-1.98-5.09-2.94-.02-.01-.05-.02-.08-.01-.03,0-.06.02-.08.04-.58.56-1.2,1.09-1.84,1.57-.64.48-1.31.93-2.02,1.34-.69.4-1.41.76-2.16,1.08-.74.31-1.5.58-2.27.81-.03,0-.06.03-.07.05-.02.03-.03.06-.03.09v5.85c0,.24-.05.47-.14.68-.09.22-.22.42-.39.58-.16.16-.36.3-.58.39-.21.09-.44.14-.68.14h-7.18c-.24,0-.47-.05-.68-.14-.22-.09-.41-.22-.58-.39-.16-.16-.29-.36-.39-.58-.09-.21-.14-.44-.14-.68v-5.85s0-.07-.03-.09c-.02-.02-.05-.04-.08-.05h-.02c-.78-.23-1.53-.5-2.26-.81-.74-.31-1.45-.67-2.14-1.07-.7-.41-1.38-.85-2.02-1.34-.64-.48-1.26-1.01-1.84-1.57-.02-.02-.05-.04-.08-.04-.03,0-.06,0-.09.02l-5.07,2.93c-.21.12-.43.19-.66.22-.23.03-.47.01-.69-.05-.22-.06-.44-.16-.63-.31-.18-.13-.33-.31-.45-.51-1.33-2.14-2.59-4.49-3.86-6.68l.07-.04c-.01-.06-.02-.11-.03-.17-.03-.24-.01-.47.05-.69.06-.22.16-.44.31-.63.14-.18.31-.34.52-.46l5.07-2.93s.05-.04.06-.07c.01-.03.02-.06,0-.09l-.13-.54h0c-.05-.21-.09-.42-.13-.64-.07-.41-.14-.8-.19-1.2-.05-.39-.08-.79-.11-1.2-.02-.41-.04-.82-.04-1.21s.01-.8.04-1.21c.02-.41.06-.82.11-1.21.05-.39.11-.79.19-1.2.07-.4.16-.79.25-1.17,0-.03,0-.06,0-.09-.01-.03-.04-.05-.07-.07l-5.06-2.92c-.21-.12-.38-.28-.52-.46-.14-.19-.25-.4-.31-.63-.06-.22-.08-.46-.05-.69.03-.22.1-.44.21-.65,1.21-2.24,2.59-4.49,3.87-6.7l.07.04s.08-.07.12-.1c.19-.14.4-.25.63-.31.22-.06.46-.08.69-.05.23.03.45.1.66.22l.37.22h0s4.7,2.72,4.7,2.72c.03.02.06.02.09.02.03,0,.06-.02.08-.04h.01c.58-.57,1.19-1.09,1.84-1.58.64-.48,1.31-.93,2.01-1.33.69-.4,1.41-.76,2.16-1.08.74-.31,1.5-.58,2.27-.81.03,0,.06-.03.07-.05.02-.03.03-.06.03-.09v-5.85c0-.24.05-.47.14-.68.09-.22.22-.42.39-.58.16-.16.36-.3.58-.39.21-.09.44-.14.68-.14h7.18c.24,0,.47.05.68.14.22.09.41.22.58.39.32.32.52.77.52,1.26v5.85s.01.07.03.09c.02.02.05.04.08.05h.02c.78.23,1.53.5,2.26.81Z"/>
    <g>
      <path class="cls-15" d="m89.75,329.61h256.53c3.22,0,5.86,2.64,5.86,5.86h0c0,3.22-2.64,5.86-5.86,5.86H89.75c-3.22,0-5.86-2.64-5.86-5.86h0c0-3.22,2.64-5.86,5.86-5.86Z"/>
      <path class="cls-6" d="m77.28,320.52h281.47c4.11,0,7.47,3.36,7.47,7.47h0c0,4.11-3.36,7.47-7.47,7.47H77.28c-4.11,0-7.47-3.36-7.47-7.47h0c0-4.11,3.36-7.47,7.47-7.47Z"/>
      <rect class="cls-43" x="247.89" y="320.52" width="15.55" height="14.94"/>
      <rect class="cls-43" x="271.52" y="320.52" width="8.08" height="14.94"/>
      <rect class="cls-43" x="288.08" y="320.52" width="4.04" height="14.94"/>
      <rect class="cls-43" x="305.95" y="320.52" width="17.39" height="14.94"/>
      <rect class="cls-43" x="336.45" y="320.52" width="8.7" height="14.94"/>
      <path class="cls-3" d="m77.89,322.94h136.8c2.44,0,4.44,2,4.44,4.44h0c0,2.44-2,4.44-4.44,4.44H77.89c-2.44,0-4.44-2-4.44-4.44h0c0-2.44,2-4.44,4.44-4.44Z"/>
    </g>
    <text class="cls-35" transform="translate(83.7 181.04)"><tspan class="cls-37" x="0" y="0">J</tspan><tspan class="cls-40" x="8.95" y="0">AV</tspan><tspan x="33.39" y="0">A</tspan></text>
    <path class="cls-25" d="m148.61,2.94h60.56c3.07,0,5.58,2.51,5.58,5.58v31.05c0,.26-.15.48-.38.58-.24.1-.5.05-.68-.13l-9.52-9.52h-55.57c-3.07,0-5.58-2.51-5.58-5.58V8.53c0-3.07,2.51-5.58,5.58-5.58Z"/>
    <path class="cls-25" d="m405.69,156.66h-60.56c-3.07,0-5.58,2.51-5.58,5.58v14.69s0,1.7,0,1.7v14.66c0,.26.15.48.38.58.24.1.5.05.68-.13l9.52-9.52h55.57c3.07,0,5.58-2.51,5.58-5.58v-16.39c0-3.07-2.51-5.58-5.58-5.58Z"/>
    <text class="cls-35" transform="translate(359.51 176.28)"><tspan class="cls-41" x="0" y="0">C</tspan><tspan class="cls-38" x="12.41" y="0">+</tspan><tspan x="22.67" y="0">+</tspan></text>
    <path class="cls-25" d="m46.77,65.45h60.56c3.07,0,5.58,2.51,5.58,5.58v31.05c0,.26-.15.48-.38.58-.24.1-.5.05-.68-.13l-9.52-9.52h-55.57c-3.07,0-5.58-2.51-5.58-5.58v-16.39c0-3.07,2.51-5.58,5.58-5.58Z"/>
    <text class="cls-35" transform="translate(46.13 85.56)"><tspan x="0" y="0">RE</tspan><tspan class="cls-39" x="23.93" y="0">A</tspan><tspan class="cls-44" x="36.8" y="0">C</tspan><tspan x="49.15" y="0">T</tspan></text>
    <text class="cls-35" transform="translate(165.93 22.11)"><tspan x="0" y="0">JS</tspan></text>
  </g>
</svg>